<mxfile host="app.diagrams.net" modified="2023-11-27T20:51:22.987Z" agent="Mozilla/5.0 (Windows NT 10.0; Win64; x64) AppleWebKit/537.36 (KHTML, like Gecko) Chrome/119.0.0.0 Safari/537.36" etag="KSuM-ahMsayuy7eooUF9" version="22.1.4" type="device">
  <diagram name="Page-1" id="58cdce13-f638-feb5-8d6f-7d28b1aa9fa0">
    <mxGraphModel dx="925" dy="484" grid="1" gridSize="10" guides="1" tooltips="1" connect="1" arrows="1" fold="1" page="1" pageScale="1" pageWidth="1100" pageHeight="850" background="none" math="0" shadow="0">
      <root>
        <mxCell id="0" />
        <mxCell id="1" parent="0" />
        <mxCell id="a7hoAzgMeFDYxmFGqqUO-38" value="Je na sklade" style="swimlane;fontStyle=0;childLayout=stackLayout;horizontal=1;startSize=30;horizontalStack=0;resizeParent=1;resizeParentMax=0;resizeLast=0;collapsible=1;marginBottom=0;whiteSpace=wrap;html=1;" vertex="1" parent="1">
          <mxGeometry x="580" y="340" width="270" height="150" as="geometry" />
        </mxCell>
        <mxCell id="a7hoAzgMeFDYxmFGqqUO-74" value="do sklad = true;" style="text;strokeColor=none;fillColor=none;align=left;verticalAlign=middle;spacingLeft=4;spacingRight=4;overflow=hidden;points=[[0,0.5],[1,0.5]];portConstraint=eastwest;rotatable=0;whiteSpace=wrap;html=1;" vertex="1" parent="a7hoAzgMeFDYxmFGqqUO-38">
          <mxGeometry y="30" width="270" height="30" as="geometry" />
        </mxCell>
        <mxCell id="a7hoAzgMeFDYxmFGqqUO-39" value="event WHEN (akce !=1) / sklad = false" style="text;strokeColor=none;fillColor=none;align=left;verticalAlign=middle;spacingLeft=4;spacingRight=4;overflow=hidden;points=[[0,0.5],[1,0.5]];portConstraint=eastwest;rotatable=0;whiteSpace=wrap;html=1;" vertex="1" parent="a7hoAzgMeFDYxmFGqqUO-38">
          <mxGeometry y="60" width="270" height="30" as="geometry" />
        </mxCell>
        <mxCell id="a7hoAzgMeFDYxmFGqqUO-40" value="event WHEN (!je_na_sklade) / sklad = false" style="text;strokeColor=none;fillColor=none;align=left;verticalAlign=middle;spacingLeft=4;spacingRight=4;overflow=hidden;points=[[0,0.5],[1,0.5]];portConstraint=eastwest;rotatable=0;whiteSpace=wrap;html=1;" vertex="1" parent="a7hoAzgMeFDYxmFGqqUO-38">
          <mxGeometry y="90" width="270" height="30" as="geometry" />
        </mxCell>
        <mxCell id="a7hoAzgMeFDYxmFGqqUO-41" value="event zrus()" style="text;strokeColor=none;fillColor=none;align=left;verticalAlign=middle;spacingLeft=4;spacingRight=4;overflow=hidden;points=[[0,0.5],[1,0.5]];portConstraint=eastwest;rotatable=0;whiteSpace=wrap;html=1;" vertex="1" parent="a7hoAzgMeFDYxmFGqqUO-38">
          <mxGeometry y="120" width="270" height="30" as="geometry" />
        </mxCell>
        <mxCell id="a7hoAzgMeFDYxmFGqqUO-46" value="zapsat" style="swimlane;fontStyle=0;childLayout=stackLayout;horizontal=1;startSize=30;horizontalStack=0;resizeParent=1;resizeParentMax=0;resizeLast=0;collapsible=1;marginBottom=0;whiteSpace=wrap;html=1;" vertex="1" parent="1">
          <mxGeometry x="160" y="350" width="140" height="60" as="geometry" />
        </mxCell>
        <mxCell id="a7hoAzgMeFDYxmFGqqUO-47" value="entry zapsat_lek" style="text;strokeColor=none;fillColor=none;align=left;verticalAlign=middle;spacingLeft=4;spacingRight=4;overflow=hidden;points=[[0,0.5],[1,0.5]];portConstraint=eastwest;rotatable=0;whiteSpace=wrap;html=1;" vertex="1" parent="a7hoAzgMeFDYxmFGqqUO-46">
          <mxGeometry y="30" width="140" height="30" as="geometry" />
        </mxCell>
        <mxCell id="a7hoAzgMeFDYxmFGqqUO-60" value="[zapsan == true]" style="text;html=1;strokeColor=none;fillColor=none;align=center;verticalAlign=middle;whiteSpace=wrap;rounded=0;" vertex="1" parent="1">
          <mxGeometry x="130" y="450" width="90" height="30" as="geometry" />
        </mxCell>
        <mxCell id="a7hoAzgMeFDYxmFGqqUO-63" value="druh leku" style="swimlane;fontStyle=0;childLayout=stackLayout;horizontal=1;startSize=30;horizontalStack=0;resizeParent=1;resizeParentMax=0;resizeLast=0;collapsible=1;marginBottom=0;whiteSpace=wrap;html=1;" vertex="1" parent="1">
          <mxGeometry x="140" y="120" width="270" height="120" as="geometry" />
        </mxCell>
        <mxCell id="a7hoAzgMeFDYxmFGqqUO-73" value="do akce = 0;" style="text;strokeColor=none;fillColor=none;align=left;verticalAlign=middle;spacingLeft=4;spacingRight=4;overflow=hidden;points=[[0,0.5],[1,0.5]];portConstraint=eastwest;rotatable=0;whiteSpace=wrap;html=1;" vertex="1" parent="a7hoAzgMeFDYxmFGqqUO-63">
          <mxGeometry y="30" width="270" height="30" as="geometry" />
        </mxCell>
        <mxCell id="a7hoAzgMeFDYxmFGqqUO-65" value="event WHEN (zapsan)/ akce = 1" style="text;strokeColor=none;fillColor=none;align=left;verticalAlign=middle;spacingLeft=4;spacingRight=4;overflow=hidden;points=[[0,0.5],[1,0.5]];portConstraint=eastwest;rotatable=0;whiteSpace=wrap;html=1;" vertex="1" parent="a7hoAzgMeFDYxmFGqqUO-63">
          <mxGeometry y="60" width="270" height="30" as="geometry" />
        </mxCell>
        <mxCell id="a7hoAzgMeFDYxmFGqqUO-66" value="event zrus()" style="text;strokeColor=none;fillColor=none;align=left;verticalAlign=middle;spacingLeft=4;spacingRight=4;overflow=hidden;points=[[0,0.5],[1,0.5]];portConstraint=eastwest;rotatable=0;whiteSpace=wrap;html=1;" vertex="1" parent="a7hoAzgMeFDYxmFGqqUO-63">
          <mxGeometry y="90" width="270" height="30" as="geometry" />
        </mxCell>
        <mxCell id="a7hoAzgMeFDYxmFGqqUO-67" value="" style="endArrow=classic;html=1;rounded=0;exitX=0.204;exitY=1.125;exitDx=0;exitDy=0;exitPerimeter=0;entryX=0.25;entryY=0;entryDx=0;entryDy=0;" edge="1" parent="1" source="a7hoAzgMeFDYxmFGqqUO-66" target="a7hoAzgMeFDYxmFGqqUO-46">
          <mxGeometry width="50" height="50" relative="1" as="geometry">
            <mxPoint x="400" y="360" as="sourcePoint" />
            <mxPoint x="450" y="310" as="targetPoint" />
          </mxGeometry>
        </mxCell>
        <mxCell id="a7hoAzgMeFDYxmFGqqUO-68" value="[akce != 1]" style="text;html=1;align=center;verticalAlign=middle;resizable=0;points=[];autosize=1;strokeColor=none;fillColor=none;" vertex="1" parent="1">
          <mxGeometry x="190" y="280" width="80" height="30" as="geometry" />
        </mxCell>
        <mxCell id="a7hoAzgMeFDYxmFGqqUO-69" value="" style="endArrow=classic;html=1;rounded=0;exitX=1.015;exitY=0.361;exitDx=0;exitDy=0;exitPerimeter=0;entryX=-0.004;entryY=0.673;entryDx=0;entryDy=0;entryPerimeter=0;" edge="1" parent="1" source="a7hoAzgMeFDYxmFGqqUO-47" target="a7hoAzgMeFDYxmFGqqUO-39">
          <mxGeometry width="50" height="50" relative="1" as="geometry">
            <mxPoint x="400" y="360" as="sourcePoint" />
            <mxPoint x="450" y="310" as="targetPoint" />
          </mxGeometry>
        </mxCell>
        <mxCell id="a7hoAzgMeFDYxmFGqqUO-70" value="" style="endArrow=classic;html=1;rounded=0;entryX=-0.016;entryY=-0.037;entryDx=0;entryDy=0;entryPerimeter=0;" edge="1" parent="1" source="a7hoAzgMeFDYxmFGqqUO-66" target="a7hoAzgMeFDYxmFGqqUO-39">
          <mxGeometry width="50" height="50" relative="1" as="geometry">
            <mxPoint x="400" y="360" as="sourcePoint" />
            <mxPoint x="450" y="310" as="targetPoint" />
          </mxGeometry>
        </mxCell>
        <mxCell id="a7hoAzgMeFDYxmFGqqUO-71" value="[akce == 1]" style="text;html=1;align=center;verticalAlign=middle;resizable=0;points=[];autosize=1;strokeColor=none;fillColor=none;" vertex="1" parent="1">
          <mxGeometry x="420" y="268" width="80" height="30" as="geometry" />
        </mxCell>
        <mxCell id="a7hoAzgMeFDYxmFGqqUO-75" value="" style="ellipse;html=1;shape=startState;fillColor=#000000;strokeColor=#ff0000;" vertex="1" parent="1">
          <mxGeometry x="260" y="30" width="30" height="30" as="geometry" />
        </mxCell>
        <mxCell id="a7hoAzgMeFDYxmFGqqUO-76" value="" style="edgeStyle=orthogonalEdgeStyle;html=1;verticalAlign=bottom;endArrow=open;endSize=8;strokeColor=#ff0000;rounded=0;" edge="1" source="a7hoAzgMeFDYxmFGqqUO-75" parent="1">
          <mxGeometry relative="1" as="geometry">
            <mxPoint x="275" y="120" as="targetPoint" />
          </mxGeometry>
        </mxCell>
      </root>
    </mxGraphModel>
  </diagram>
</mxfile>
